:SAMPLES-PER-SECOND 30
:FULLY-SPECIFIED
:DEGREES
1151
root  44.7461 34.7751 -20.9789 -88.8315 6.51251 -19.6058
RightUpLeg  90.0602 -11.6827 -5.53401
RightLeg  -0.274899 -42.9044 9.97004
RightFoot  -3.27714 0.216499 -3.32334
RightToes  3.49245e-010 0 -3.6325e-017
Spine  83.9686 -13.5687 8.63765
Spine1  10.205 -3.93747 1.63631
HEad  -23.4939 -47.1997 11.1979
LeftShoulder1  -0.13755 3.90962 -27.7367
LeftArm  -29.3699 23.6725 -31.5558
LeftForeArm  46.4245 -72.7616 -32.4938
LeftHand  -0.0526448 4.27554 3.32815
RightShoulder  -0.524957 -5.12631 25.5629
RightArm  -3.08761 -10.6248 25.7782
RightForeArm  -8.09568 70.1776 36.0014
RightHand  -0.356856 6.03555 -3.95162
LeftUpLeg  52.1283 -9.84226 96.2211
LeftLeg  32.8601 -40.1429 -20.5286
LeftFoot  -14.4297 0.18089 4.87227
LeftToes  -5.36635e-011 -6.70219e-011 5.24975e-011
1152
root  44.7718 34.4388 -20.68 -103.582 1.85718 -19.0885
RightUpLeg  99.7511 -18.8539 16.1925
RightLeg  -6.25992 -57.1627 13.5452
RightFoot  -1.48644 0.357592 -4.28136
RightToes  3.49245e-010 0 -3.6325e-017
Spine  96.3552 -15.6581 6.43281
Spine1  14.1115 -5.92341 3.19108
HEad  -24.3954 -49.8331 11.2978
LeftShoulder1  -0.177892 4.03271 -27.4457
LeftArm  -29.1413 25.5136 -32.3827
LeftForeArm  36.8651 -72.0463 -32.7115
LeftHand  -0.067777 4.1818 4.71994
RightShoulder  -0.647325 -5.49725 25.7492
RightArm  -14.7507 -12.6457 26.8861
RightForeArm  -3.72124 72.6566 42.9036
RightHand  -0.505431 6.57433 -5.22797
LeftUpLeg  46.8096 -21.9957 112.41
LeftLeg  34.717 -37.0292 -23.9338
LeftFoot  -12.8059 0.146244 5.36413
LeftToes  -5.36635e-011 -6.70219e-011 5.24975e-011
1153
root  44.8435 34.2912 -20.4988 -103.883 -2.1098 -19.1438
RightUpLeg  98.8177 -20.4368 19.7077
RightLeg  -3.7161 -56.8841 10.9278
RightFoot  -1.60805 0.265619 -3.24376
RightToes  3.49245e-010 0 -3.6325e-017
Spine  97.6308 -16.0674 5.67266
Spine1  14.4251 -6.7776 3.22462
HEad  -25.1053 -51.608 11.3577
LeftShoulder1  -0.191876 4.07634 -27.3188
LeftArm  -27.9753 26.8822 -32.9529
LeftForeArm  34.584 -71.6304 -32.1048
LeftHand  -0.0785741 3.71982 4.38486
RightShoulder  -0.836268 -6.04899 26.2529
RightArm  -27.3373 -13.9729 28.199
RightForeArm  0.235861 74.5388 50.8305
RightHand  -0.796319 7.66494 -7.4369
LeftUpLeg  44.7198 -22.0862 117.497
LeftLeg  34.9067 -37.8286 -24.4943
LeftFoot  -12.5045 0.120586 4.44012
LeftToes  -5.36635e-011 -6.70219e-011 5.24975e-011
1154
root  44.7952 34.2643 -20.2698 -102.099 -5.62903 -19.437
RightUpLeg  96.8873 -21.1862 21.8417
RightLeg  -2.17346 -55.1158 9.49856
RightFoot  -2.05879 0.205781 -2.70579
RightToes  3.49245e-010 0 -3.6325e-017
Spine  97.4206 -15.8629 5.26182
Spine1  13.7143 -7.45457 4.09747
HEad  -25.3844 -53.489 11.195
LeftShoulder1  -0.191847 4.07328 -27.4992
LeftArm  -26.293 28.1543 -33.132
LeftForeArm  48.3123 -73.3997 -33.9722
LeftHand  -0.0579096 3.15159 2.21283
RightShoulder  -0.9082 -6.28033 26.1387
RightArm  -38.6334 -15.4241 28.8468
RightForeArm  3.44284 75.9102 59.5076
RightHand  -1.23531 9.86296 -9.71317
LeftUpLeg  44.3767 -21.8705 118.554
LeftLeg  34.106 -35.869 -22.9085
LeftFoot  -12.5625 0.0998474 2.45547
LeftToes  -5.36635e-011 -6.70219e-011 5.24975e-011
1155
root  44.6971 34.337 -20.0031 -98.8358 -8.435 -19.106
RightUpLeg  96.4564 -19.6041 15.9065
RightLeg  1.54286 -46.0626 6.2261
RightFoot  -3.19966 0.157751 -2.51623
RightToes  3.49245e-010 0 -3.6325e-017
Spine  96.2464 -14.9645 4.69398
Spine1  12.42 -7.63719 4.71501
HEad  -25.8482 -54.2415 12.6827
LeftShoulder1  -0.14687 3.93879 -27.5884
LeftArm  -23.8406 29.1609 -33.5969
LeftForeArm  67.3855 -76.2642 -39.4647
LeftHand  -0.0466675 3.53701 1.58924
RightShoulder  -1.00924 -6.65369 25.4557
RightArm  -46.8329 -16.8291 28.1984
RightForeArm  0.618641 76.194 62.8514
RightHand  -1.98052 11.7008 -13.7656
LeftUpLeg  47.0426 -22.5753 114.727
LeftLeg  31.8407 -30.82 -18.6829
LeftFoot  -12.9168 0.0727324 -0.4145
LeftToes  -5.36635e-011 -6.70219e-011 5.24975e-011
